<svg width="517" height="518" viewBox="0 0 517 518" fill="none" xmlns="http://www.w3.org/2000/svg">
<g clip-path="url(#clip0_111_2205)">
<path d="M224.88 350.653C225.26 351.035 231.352 423.945 231.352 424.971C231.352 425.997 234.1 429.797 234.1 429.797C234.1 429.797 231.618 418.78 231.496 393.235C231.496 393.208 227.396 346.03 227.396 346.03L228.158 344.149L233.107 384.259C233.107 384.259 233.457 378.499 233.51 378.312C233.883 377.146 234.395 376.03 235.033 374.986C235.033 374.986 232.749 344.325 232.368 339.866C231.988 335.407 223.109 320.412 223.109 320.412C223.109 320.412 224.491 350.287 224.88 350.653ZM292.135 350.653C292.516 350.272 293.887 320.427 293.887 320.427C293.887 320.427 284.997 335.418 284.632 339.881C284.266 344.344 281.967 375.001 281.967 375.001C282.619 376.044 283.146 377.16 283.535 378.328C283.589 378.514 283.939 384.274 283.939 384.274L288.888 344.165L289.649 346.045C289.649 346.045 285.496 393.208 285.53 393.235C285.389 418.792 282.907 429.797 282.907 429.797C282.907 429.797 285.663 425.982 285.663 424.971C285.663 423.961 291.759 351.046 292.135 350.653ZM224.651 269.023L227.865 270.11L258.5 271.002L289.151 270.094L292.36 269.007L224.651 269.023ZM258.5 456.388L280.653 455.777C280.653 455.495 285.199 431.593 285.199 431.593C285.199 431.593 281.944 440.786 278.978 441.179C274.094 441.843 264.154 442.396 258.5 442.396C252.847 442.396 242.891 441.843 238.022 441.179C235.037 440.798 231.801 431.593 231.801 431.593C231.801 431.593 236.335 455.495 236.335 455.777L258.5 456.388ZM291.972 288.759C290.327 277.998 290.529 275.08 289.41 272.2L282.127 277.498L285.644 289.167L285.199 290.22L280.398 280.176L278.914 284.754L290.274 310.719C290.274 310.719 292.459 291.894 291.972 288.759ZM272.205 284.674L269.735 287.744L276.393 305.398C277.325 302.717 278.108 299.987 278.738 297.219C279.82 292.421 276.013 281.511 276.013 281.511L272.205 284.674ZM282.203 389.893L270.721 418.918L272.986 422.484L277.372 409.515L277.752 411.743L275.381 425.017L276.214 428.115L280.642 429.831C280.642 429.831 281.045 421.126 282.743 409.664C283.311 405.697 282.207 389.893 282.207 389.893H282.203ZM313.093 207.418C321.423 207.274 329.355 203.82 335.143 197.817C340.932 191.814 344.104 183.753 343.961 175.407C343.961 174.678 343.908 173.984 343.855 173.267L336.111 182.506L333.092 189.864C333.092 189.864 326.209 198.374 305.795 201.94C304.68 203.165 303.45 204.462 302.14 205.839C305.676 206.989 309.382 207.523 313.097 207.418H313.093ZM344.947 143.67L311.612 162.174L314.959 174.583L313.055 173.534L309.385 163.33L280.071 181.159L277.535 200.171C277.535 200.171 279.264 197.272 281.666 195.803C305.761 181.266 354.381 156.037 354.381 156.037L344.947 143.67ZM292.969 201.406C294.987 202.838 297.166 204.028 299.46 204.95C300.404 204.031 301.47 202.986 302.765 201.666C298.958 201.174 294.576 200.171 294.576 200.171L292.969 201.406ZM328.668 173.385L302.019 187.953L302.746 188.525L308.925 186.713C310.759 188.239 313.07 189.072 315.454 189.066C321.122 189.066 325.303 183.944 325.653 179.53C325.828 177.184 325.615 176.307 325.615 176.307L328.352 174.27L328.668 173.385ZM201.554 88.8172L201.687 89.1071L214.072 115.427L228.116 115.046L213.249 93.9515L201.554 88.8172ZM315.332 89.1147L315.465 88.8134L303.758 93.963L288.888 115.057L302.948 115.439L315.332 89.1147ZM190.197 120.306L173.827 141.286L206.343 160.03L213.196 144.269L206.438 136.64L206.141 134.858L214.776 142.541L249.675 138.223H267.378L302.262 142.541L310.923 134.858L310.63 136.64L303.857 144.269L310.657 160.03L343.211 141.271L326.818 120.291L320.586 125.879L319.98 124.956L324.93 119.234L286.672 118.036L278.765 127.882H277.185L296.91 87.8292L258.5 91.7811L220.106 87.8292L239.83 127.882H238.265L230.347 118.036L192.112 119.234L197.062 124.956L196.445 125.879L190.197 120.306ZM237.786 438.555C240.07 439.734 258.428 439.924 258.523 439.951C258.618 439.978 276.953 439.734 279.245 438.555C281.537 437.376 284.83 429.93 284.83 429.93L281.08 434.325L274.037 431.46L258.523 432.986L242.979 431.46L235.951 434.325L232.216 429.93C232.216 429.93 235.502 437.38 237.778 438.555H237.786ZM241.901 361.792C242.967 366.197 244.566 368.036 246.58 370.752C248.594 373.468 250.696 377.484 252.519 377.484C254.343 377.484 255.866 376.878 258.439 376.878C261.013 376.878 262.501 377.484 264.378 377.484C266.255 377.484 268.284 373.498 270.302 370.771C272.32 368.044 273.919 366.216 274.996 361.811C276.073 357.405 277.375 333.389 277.375 333.389L260.023 347.06L258.527 375.39L257.879 374.742L256.867 347.06L239.518 333.389C239.518 333.389 240.828 357.42 241.894 361.792H241.901ZM253.399 301.492L257.327 288.408L254.415 287.012L249.466 286.554C250.745 298.761 251.449 299.069 251.529 299.218C251.986 300.18 253.399 301.492 253.399 301.492ZM240.652 305.398L247.277 287.744L244.795 284.674L240.987 281.511C240.987 281.511 237.211 292.406 238.262 297.204C238.899 299.98 239.697 302.716 240.652 305.398ZM265.49 299.218C265.555 299.069 266.251 298.776 267.553 286.554L262.604 287.012L259.676 288.408L263.628 301.492C263.628 301.492 265.033 300.18 265.49 299.218ZM316.885 229.172L488.203 232.388L490.469 232.43L494.108 232.499L383.791 191.489L316.885 229.172ZM227.606 272.211C226.486 275.091 226.688 278.01 225.043 288.77C224.556 291.894 226.757 310.723 226.757 310.723L238.106 284.757L236.617 280.18L231.828 290.224L231.386 289.171L234.896 277.51L227.606 272.211ZM383.833 186.057L365.391 178.218L352.599 162.83L347.125 169.365C347.243 169.839 347.332 170.321 347.391 170.806C348.153 179.58 346.664 193.663 331.402 204.286C318.88 212.465 304.607 209.707 300.359 208.482C299.94 208.356 294.648 214.357 294.302 215.451C293.201 218.739 292.841 222.231 293.247 225.674L291.926 224.473C291.926 224.473 291.385 217.393 292.033 214.986C292.764 212.43 297.001 207.449 297.321 207.105C294.557 205.53 291.332 203.195 291.009 202.963C291.009 202.963 284.952 206.876 284.696 208.383C283.935 213.308 288.123 228.043 288.595 230.004C288.835 231.015 289.984 231.759 290.822 232.159L295.486 229.523L292.493 239.212L277.193 248.138L278.826 249.63L291.622 243.095L290.814 247.146L269.16 259.112L258.5 260.058L247.867 259.112L226.216 247.146L225.379 243.095L238.197 249.61L239.83 248.119L224.514 239.193L221.545 229.504L226.216 232.14C227.027 231.739 228.169 230.996 228.428 229.985C228.885 228.024 233.084 213.289 232.315 208.364C232.087 206.838 226.014 202.944 226.014 202.944C225.702 203.176 222.466 205.511 219.698 207.086C220.026 207.43 224.267 212.427 224.975 214.967C225.634 217.374 225.123 224.454 225.123 224.454L223.787 225.655C224.176 222.21 223.808 218.721 222.71 215.432C222.356 214.338 217.068 208.337 216.649 208.463C212.427 209.707 198.154 212.465 185.606 204.267C170.347 193.644 168.855 179.557 169.616 170.787C169.681 170.333 169.78 169.841 169.875 169.345L164.427 162.83L151.628 178.218L133.209 186.057C133.209 186.057 214.612 229.161 219.108 239.513C221.773 245.575 220.323 266.036 220.323 266.036L220.498 265.879L220.471 266.036H296.571L296.517 265.879L296.677 266.036C296.677 266.036 295.25 245.575 297.892 239.513C302.415 229.172 383.833 186.057 383.833 186.057ZM283.014 202.932C283.014 202.932 281.719 201.616 280.935 200.693L279.641 201.456C279.641 201.456 276.892 205.683 276.999 207.784C277.429 215.665 278.818 227.368 278.818 227.368L278.4 228.131C278.4 228.131 276.808 216.188 274.893 208.677C273.961 204.958 276.606 187.068 278.076 177.627C279.481 168.8 281.948 152.832 299.89 144.143L267.824 139.947C267.824 139.947 266.084 156.204 265.341 168.369C264.869 175.933 259.204 227.391 259.204 227.391L258.5 229.252L257.822 227.372C257.822 227.372 252.157 175.914 251.67 168.35C250.909 156.185 249.176 139.928 249.176 139.928L217.136 144.124C235.052 152.802 237.534 168.781 238.924 177.608C240.409 187.049 243.051 204.939 242.107 208.658C240.203 216.176 238.6 228.112 238.6 228.112L238.197 227.349C238.197 227.349 239.583 215.646 240.005 207.765C240.112 205.663 237.375 201.437 237.375 201.437L236.065 200.674C235.304 201.597 234.013 202.913 234.013 202.913C234.511 204.487 234.824 206.114 234.946 207.761C235.444 213.483 230.088 229.996 228.873 233.62L245.065 242.775H271.95L288.127 233.62C286.912 229.996 281.54 213.498 282.035 207.761C282.176 206.12 282.505 204.499 283.014 202.932ZM271.01 384.29C271.771 383.145 276.702 378.041 276.458 375.585C276.214 373.128 275.487 366.148 275.487 366.148C275.487 366.148 269.076 379.85 266.381 379.85C263.685 379.85 260.487 379.163 258.473 379.163C256.459 379.163 252.999 379.865 250.635 379.865C248.27 379.865 241.543 366.159 241.543 366.159C241.543 366.159 240.854 374.013 240.557 376.077C240.26 378.141 245.415 383.416 246.009 384.309C246.603 385.201 250.056 386.597 251.122 386.597C252.188 386.597 256.425 382.192 256.425 382.192C256.425 382.192 256.909 381.623 258.607 381.623C260.305 381.623 260.822 382.192 260.822 382.192C260.822 382.192 264.884 386.597 265.909 386.597C266.933 386.597 270.226 385.449 271.01 384.286V384.29ZM251.781 418.407L251.864 425.059L255.858 425.746L255.629 418.117C255.534 417.979 253.577 415.248 253.577 415.248L251.781 418.407ZM247.212 417.972C247.212 418.258 247.593 424.075 247.593 424.075L250.893 424.624L250.452 417.96L248.723 415.229C248.723 415.229 247.208 417.69 247.208 417.968L247.212 417.972ZM258.5 414.638H258.47L256.543 417.556V426.074L257.004 426.196L258.47 426.532H258.511L259.97 426.196L260.442 426.074V417.537L258.511 414.619L258.5 414.638ZM261.131 425.75L265.124 425.063L265.219 418.41L263.411 415.244L261.374 418.113L261.131 425.75ZM266.114 424.632L269.422 424.083C269.422 424.083 269.803 418.254 269.803 417.979C269.803 417.705 268.28 415.248 268.28 415.248L266.579 417.979L266.114 424.632ZM234.276 409.645C235.951 421.088 236.381 429.812 236.381 429.812L240.793 428.096L241.642 424.998L239.255 411.724L239.617 409.496L244.003 422.465L246.287 418.899L234.82 389.874C234.82 389.874 233.705 405.697 234.283 409.645H234.276ZM421.443 163.261L407.558 181.54L403.393 187.026C403.393 187.026 408.936 183.734 412.268 182.113L412.572 181.971L412.702 181.918L412.926 181.823L413.075 181.762L413.341 181.655L413.478 181.605L413.897 181.449C417.377 180.198 424.176 178.397 431.653 176.543L434.074 175.952C447.925 172.58 463.008 169.288 463.008 169.288L424.423 159.306L421.443 163.261ZM425.25 112.261C425.25 112.261 420.704 130.67 408.521 150.326C405.047 155.973 401.124 161.331 396.792 166.347L396.693 166.465C396.186 167.045 395.669 167.61 395.17 168.19C391.048 172.743 386.505 176.895 381.602 180.591L385.824 181.96C385.824 181.96 391.032 180.007 398.364 172.302C402.415 168.041 407.12 162.052 411.91 153.687C418.153 142.831 424.614 127.973 430.184 107.722L425.25 112.261ZM397.02 138.791C394.599 140.672 392.178 142.518 389.863 144.261C381.423 150.601 374.448 155.552 374.448 155.552L372.781 168.949L375.777 176.612C375.777 176.612 400.789 162.975 417.601 120.863C414.209 125.036 405.632 132.104 397.02 138.776V138.791ZM211.646 115.523L196.129 94.6687L193.711 91.434L177.836 80.8334L161.138 69.6874L190.072 116.247L211.646 115.523ZM128.272 130.491L147.943 142.96L159.973 150.589L166.445 142.987C166.445 142.987 161.058 139.859 153.12 135.167C149.02 132.738 144.238 129.907 139.164 126.871C119.923 115.332 96.4673 100.894 89.9839 95.2294C85.3735 91.1746 85.8837 83.1183 86.5575 82.939C89.0397 90.9991 99.197 97.5486 112.27 106.108C117.41 109.473 127.286 115.408 137.378 121.366C144.566 125.62 151.879 129.892 157.639 133.256C164.347 137.159 168.988 139.836 168.988 139.836L187.643 118.193C187.643 118.193 183.383 116.598 176.747 114.096C170.557 111.765 162.257 108.626 153.448 105.258C130.08 96.3394 102.977 85.8037 100.941 84.2131C96.5701 80.78 92.6412 75.4397 92.1844 71.8464C91.1717 63.5003 95.4737 54.9443 95.4737 54.9443C95.4737 54.9443 79.2061 70.5838 78.1515 77.6368C76.1414 91.0639 84.8025 102.95 84.8025 102.95L128.272 130.491ZM448.157 327.991L435.274 308.724L405.156 263.713L344.266 241.997C344.266 241.997 312.64 244.457 311.525 245.098C310.409 245.739 308.041 248.024 308.041 248.024L306.469 252.3L425.451 333.648L435.59 340.583L474.266 367.029L448.157 327.995V327.991ZM191.397 179.511C191.72 183.944 195.904 189.047 201.569 189.047C203.958 189.055 206.274 188.222 208.113 186.694L214.292 188.506L215.019 187.934L188.347 173.366L188.671 174.232L191.423 176.269C191.423 176.269 191.221 177.165 191.397 179.511ZM162.672 156.037C162.672 156.037 211.292 181.266 235.391 195.803C237.79 197.272 239.507 200.171 239.507 200.171L236.967 181.159L207.653 163.341L203.956 173.534L202.053 174.583L205.399 162.186L172.08 143.67L162.672 156.037ZM258.5 207.91L259.36 207.182L265.745 139.943H251.267L257.647 207.182L258.5 207.91ZM308.373 161.354L302.517 145.486C289.512 150.445 282.268 165.108 280.817 177.734L308.373 161.354ZM214.517 145.486L208.627 161.354L236.213 177.734C234.744 165.1 227.499 150.445 214.521 145.478L214.517 145.486ZM183.946 189.871L180.923 182.513L173.184 173.267C173.104 173.984 173.077 174.678 173.062 175.407C172.989 179.54 173.73 183.647 175.242 187.493C176.755 191.339 179.008 194.849 181.875 197.821C184.742 200.794 188.165 203.172 191.949 204.819C195.733 206.465 199.804 207.349 203.929 207.418C207.64 207.522 211.341 206.988 214.871 205.839C213.577 204.461 212.363 203.161 211.231 201.94C190.829 198.374 183.95 189.864 183.95 189.864L183.946 189.871ZM217.578 204.958C219.869 204.04 222.041 202.85 224.05 201.414L222.458 200.178C222.458 200.178 218.099 201.181 214.269 201.673C215.549 202.986 216.622 204.031 217.582 204.95L217.578 204.958ZM106.644 333.663L87.5626 346.74L133.529 392.804L139.316 366.407L106.644 333.663ZM100.529 327.522L210.554 252.3L208.974 248.024C208.974 248.024 206.602 245.716 205.494 245.098C204.386 244.48 172.753 241.997 172.753 241.997L111.84 263.709L71.5729 323.94L68.8623 327.987L42.7496 367.025L81.4294 340.579L100.533 327.522H100.529ZM75.6046 302.571L32.1202 259.006L50.5921 240.524L23.0708 241.02L17.8513 241.116L0 259.006L62.7329 321.835L75.6046 302.571ZM376.333 399.937L370.557 373.552L362.639 337.352C362.639 337.352 331.771 312.355 325.185 307.316C322.489 305.26 306.461 301.263 306.461 301.263L381.605 424.09L376.329 399.952L376.333 399.937ZM126.505 164.406C134.934 173.179 141.242 176.612 141.242 176.612L144.235 168.918L142.56 155.522C142.56 155.522 138.497 152.638 132.821 148.453C129.014 145.646 124.499 142.259 119.976 138.761C111.372 132.093 102.818 125.028 99.4178 120.863C102.925 129.756 107.274 138.292 112.404 146.355C116.514 152.813 121.236 158.857 126.505 164.406ZM377.692 366.388L383.482 392.785L429.46 346.74L410.368 333.682L377.692 366.388ZM258.5 485.813L164.968 392.086L152.759 412.036L258.5 518.011L364.241 412.048L352.059 392.098L258.5 485.813ZM158.755 385.873L210.531 301.251C210.531 301.251 194.503 305.249 191.804 307.305C185.233 312.344 154.342 337.341 154.342 337.341L135.372 424.071L146.572 405.838L158.781 385.888L158.755 385.873ZM26.5391 232.43L27.7573 232.407L200.115 229.172L133.225 191.489L22.9109 232.499L26.5391 232.43ZM466.438 240.513L484.891 259.006L441.399 302.571L454.298 321.835L517 259.006L499.168 241.127L493.96 241.032L466.438 240.513ZM345.301 102.82L356.795 98.4946L351.393 93.0742L345.301 102.82ZM101.142 189.829C101.104 189.807 101.063 189.789 101.021 189.776C100.453 189.501 96.5968 187.937 75.8597 183.009L42.997 215.924L94.0346 196.947L101.142 189.829ZM416.01 189.776C415.957 189.776 415.926 189.814 415.873 189.829L422.965 196.947L474.018 215.924L441.167 183.009C420.422 187.937 416.562 189.501 416.01 189.776ZM105.856 154.911L105.913 155.01C106.191 155.476 106.469 155.934 106.743 156.388L106.842 156.552C107.1 156.975 107.359 157.391 107.603 157.799L107.751 158.035L108.467 159.153L108.665 159.458C108.882 159.79 109.099 160.114 109.316 160.439L109.567 160.82L110.112 161.613C110.748 162.537 111.376 163.418 111.996 164.265L112.191 164.532C112.385 164.791 112.571 165.046 112.769 165.294L113.055 165.676L113.55 166.317L113.911 166.778C114.048 166.954 114.189 167.125 114.326 167.297L114.764 167.843L115.088 168.224C115.263 168.438 115.438 168.651 115.613 168.857L115.83 169.113L116.458 169.845L116.557 169.96C117.276 170.784 117.979 171.558 118.666 172.283C126.014 179.992 131.226 181.952 131.226 181.952L135.452 180.583C130.658 176.973 126.21 172.923 122.165 168.487C117.054 162.862 112.48 156.77 108.501 150.292C96.3189 130.647 91.7504 112.246 91.7504 112.246L86.8545 107.707C92.4166 127.962 98.881 142.819 105.128 153.675C105.376 154.106 105.616 154.488 105.856 154.911ZM347.311 139.051C347.311 139.051 352.021 136.46 358.824 132.676C362.909 130.388 367.744 127.687 372.777 124.849L376.017 123.014L379.386 121.107C389.619 115.286 399.613 109.465 404.756 106.101C417.814 97.541 427.979 90.9915 430.465 82.9314C431.128 83.1107 431.607 91.1669 427.039 95.2218C421.054 100.455 400.313 112.841 381.788 123.522C374.185 127.882 367.001 131.982 361.314 135.175C354.198 139.176 349.512 141.778 349.512 141.778L357.05 150.574L369.069 142.945L388.751 130.476L432.209 102.942C432.209 102.942 440.87 91.0563 438.848 77.6292C437.794 70.5876 421.523 54.9367 421.523 54.9367C421.523 54.9367 425.828 63.4926 424.842 71.8388C424.412 75.4359 420.445 80.7724 416.086 84.2054C414.038 85.8114 386.852 96.2555 363.419 105.098L362.734 105.357C344.753 112.143 329.163 117.918 329.163 117.918L347.311 139.051ZM165.642 93.0742L160.057 98.6701C163.955 100.158 167.913 101.661 171.931 103.179L165.642 93.0742ZM305.384 115.534L326.94 116.255L337.284 99.6237L345.21 86.8832L355.896 69.6988L339.183 80.8296L323.296 91.4263L305.384 115.534ZM82.9142 175.941C84.3608 176.292 85.786 176.641 87.1895 176.99C92.4433 178.302 97.244 179.576 100.617 180.617L100.842 180.686L101.177 180.793L101.519 180.903L101.675 180.953C102.494 181.22 103.198 181.468 103.781 181.693L103.845 181.72L104.131 181.834L104.238 181.876L104.455 181.971L104.744 182.105C108.064 183.726 113.592 187.018 113.592 187.018L109.43 181.533L95.5574 163.261L92.5537 159.302L53.988 169.273C53.988 169.273 69.0717 172.565 82.9218 175.937L82.9142 175.941ZM258.5 32.1754L309.134 82.2944L331.013 72.6551L274.554 16.0934L258.5 0L185.998 72.6551L207.885 82.2944L258.5 32.1754Z" fill="#B7B7B7"/>
</g>
<defs>
<clipPath id="clip0_111_2205">
<rect width="517" height="518" fill="white"/>
</clipPath>
</defs>
</svg>
